<svg version="1.1" id="Layer_1" xmlns="http://www.w3.org/2000/svg" xmlns:xlink="http://www.w3.org/1999/xlink" x="0px" y="0px"
	 width="100%" viewBox="0 0 1000 1125" enable-background="new 0 0 1000 1125" xml:space="preserve">
<path fill="#FFFFFF" opacity="1.000000" stroke="none" 
	d="
M0.999995,608.000000 
	C1.000000,578.645752 1.000000,549.291565 1.437807,519.460144 
	C2.245583,518.548157 2.888913,518.145874 2.945056,517.673767 
	C4.004298,508.767273 4.631311,499.793121 6.078824,490.952667 
	C8.585366,475.644348 10.875475,460.243378 14.542238,445.194580 
	C21.419067,416.971405 30.693018,389.525269 42.440899,362.858948 
	C53.300877,338.208008 65.476570,314.297394 80.649345,292.109222 
	C92.801430,274.338379 105.653648,256.945496 119.438507,240.422150 
	C131.633331,225.804718 144.909485,211.934937 158.867691,198.984787 
	C174.044998,184.903610 189.906326,171.360214 206.668549,159.240845 
	C224.765747,146.156265 243.823593,134.237000 263.264954,123.226471 
	C278.871857,114.387543 295.340698,106.810982 312.039307,100.227089 
	C331.388245,92.598228 351.217499,86.021996 371.184387,80.169838 
	C393.852264,73.526039 417.059448,69.027016 440.667084,66.980492 
	C455.839111,65.665245 470.987946,63.612125 486.184875,63.160809 
	C511.582886,62.406544 536.978943,63.213856 562.192566,66.982903 
	C574.238770,68.783638 586.420898,69.868240 598.340271,72.274017 
	C611.401917,74.910362 624.240356,78.662033 637.160461,81.988312 
	C662.395630,88.485085 686.634949,97.795441 710.209045,108.750854 
	C743.633606,124.284042 775.533691,142.496140 804.238159,165.793594 
	C820.108337,178.674347 835.801270,191.826660 850.858948,205.636353 
	C860.687073,214.649933 869.344177,224.961426 878.311523,234.885223 
	C884.341736,241.558670 890.488220,248.218216 895.719604,255.503708 
	C906.911987,271.090881 917.866150,286.870911 928.326538,302.956543 
	C942.030701,324.030457 953.048279,346.621826 962.780579,369.726685 
	C973.242249,394.563171 981.753906,420.160034 987.742920,446.486572 
	C990.856873,460.174591 993.600525,473.967590 995.884216,487.816589 
	C997.475464,497.466370 997.963379,507.296173 999.078979,517.030090 
	C999.161560,517.750671 1000.334167,518.346313 1001.000000,519.000000 
	C1001.000000,548.354248 1001.000000,577.708435 1000.624268,607.228760 
	C999.838257,608.071594 999.155640,608.711365 999.057922,609.430603 
	C996.999573,624.575684 995.796753,639.887695 992.803772,654.842285 
	C988.991333,673.891235 984.567871,692.906067 978.873962,711.465149 
	C973.389587,729.341309 966.221558,746.725281 959.309509,764.133423 
	C948.945374,790.235779 935.201782,814.643738 919.446960,837.782715 
	C907.967102,854.643066 895.655701,871.042175 882.517151,886.637817 
	C870.249512,901.199890 857.036377,915.114746 843.079224,928.064026 
	C827.903076,942.144348 812.045898,955.691589 795.281372,967.804565 
	C777.183594,980.880920 758.116943,992.779053 738.674561,1003.780212 
	C723.063416,1012.613586 706.604553,1020.218201 689.895813,1026.771973 
	C670.387451,1034.423950 650.391968,1041.014648 630.243225,1046.794922 
	C614.791321,1051.227905 598.831726,1054.002686 582.989136,1056.925537 
	C571.176086,1059.104980 559.214233,1060.560425 547.271667,1061.928467 
	C538.309509,1062.955200 529.273743,1063.868530 520.269104,1063.883789 
	C501.352295,1063.915894 482.405457,1063.849243 463.527069,1062.806641 
	C450.560425,1062.090576 437.651520,1059.903564 424.784698,1057.931274 
	C412.804047,1056.094604 400.802948,1054.147705 389.005463,1051.410522 
	C363.669647,1045.532715 338.917267,1037.760986 314.709564,1028.113647 
	C290.902496,1018.625854 267.946594,1007.401001 246.064682,994.245239 
	C229.363358,984.204102 213.321869,972.908447 197.809967,961.090454 
	C182.491867,949.419983 167.632904,937.000854 153.641113,923.779358 
	C141.206192,912.028931 129.763931,899.124634 118.750679,886.001953 
	C107.606186,872.722961 97.028030,858.898926 87.093094,844.690430 
	C71.124054,821.852295 57.348087,797.659973 46.075905,772.139832 
	C40.382908,759.250854 34.636585,746.313416 30.144571,732.983337 
	C23.849779,714.303589 18.258587,695.354309 13.224133,676.293823 
	C10.014235,664.141113 8.042259,651.627502 6.103217,639.184082 
	C4.596709,629.516418 4.036673,619.702942 2.921056,609.969666 
	C2.838481,609.249146 1.665859,608.653625 0.999995,608.000000 
M702.418701,215.036575 
	C698.523865,212.790955 694.705505,210.398544 690.721680,208.323837 
	C667.187439,196.067810 642.885620,185.611038 617.429077,178.042694 
	C597.784180,172.202194 577.924866,167.094620 557.469177,165.053070 
	C540.999023,163.409317 524.493652,161.850082 507.965668,161.126801 
	C489.169037,160.304230 470.358765,161.077194 451.715240,164.013641 
	C438.915741,166.029648 425.982025,167.510910 413.385437,170.427826 
	C391.501434,175.495361 369.762573,181.347504 349.338226,190.993942 
	C331.208771,199.556488 312.710938,207.552902 295.380249,217.541992 
	C270.306732,231.993851 247.213150,249.523697 226.220871,269.495392 
	C214.133224,280.995392 202.393860,293.045441 191.893661,305.980988 
	C180.204422,320.381409 169.709579,335.807831 159.397446,351.256653 
	C143.546127,375.003845 131.626999,400.799896 122.043892,427.641022 
	C113.091652,452.715210 105.871933,478.272278 103.007042,504.854736 
	C101.185669,521.754700 99.340324,538.663879 98.145714,555.614075 
	C97.615379,563.138916 98.446777,570.792480 99.045433,578.357178 
	C100.220177,593.201233 100.862190,608.152039 103.205376,622.822266 
	C105.997391,640.302551 109.702911,657.701843 114.172119,674.833740 
	C120.419868,698.783264 129.524933,721.848022 141.180481,743.637878 
	C150.873306,761.758423 161.375137,779.618469 173.293762,796.327759 
	C185.204849,813.026550 198.896591,828.533264 212.626251,843.827759 
	C220.970917,853.123474 230.578842,861.366699 240.144623,869.461975 
	C249.920532,877.734985 260.125458,885.544922 270.519653,893.034363 
	C291.996552,908.509399 314.720428,921.986694 339.296448,931.895874 
	C357.406738,939.198059 375.722137,946.227417 394.421326,951.777527 
	C422.006226,959.965149 450.490021,964.208862 479.190948,965.783203 
	C495.043488,966.652771 511.038422,965.742249 526.927307,964.871033 
	C539.291931,964.193054 551.724365,963.058594 563.889099,960.830078 
	C581.455566,957.612000 599.043701,954.048462 616.198120,949.146851 
	C646.390686,940.519531 674.979004,927.881409 702.169189,912.042175 
	C728.931274,896.452209 753.923767,878.402832 776.169556,856.966309 
	C791.087769,842.590759 805.119812,827.117493 818.150696,811.005066 
	C835.693420,789.313843 850.600647,765.721497 862.264893,740.258545 
	C868.343323,726.989624 874.927368,713.864197 879.786438,700.143982 
	C888.713135,674.937927 895.403992,649.125610 899.205505,622.511353 
	C902.187073,601.637268 903.542175,580.740601 903.940979,559.730530 
	C904.018372,555.652527 903.345154,551.559082 902.997986,547.474487 
	C901.666321,531.809326 901.459290,515.942261 898.703979,500.531067 
	C895.229492,481.097351 890.135254,461.908691 884.891235,442.847748 
	C879.011658,421.476898 870.517090,400.960907 859.867126,381.571014 
	C850.201843,363.974030 839.891846,346.597931 828.309692,330.225433 
	C817.226379,314.558075 804.639709,299.859222 791.803711,285.551117 
	C776.407532,268.389130 758.726257,253.527313 740.169800,239.893661 
	C728.247986,231.134537 715.427612,223.598511 702.418701,215.036575 
M888.035583,762.611877 
	C878.329041,778.893982 869.624451,795.890991 858.651184,811.269226 
	C846.178650,828.748657 831.968201,845.030396 817.942871,861.342407 
	C810.445374,870.062378 801.862366,877.869873 793.548706,885.859741 
	C788.231018,890.970398 782.846069,896.122375 776.905273,900.451538 
	C761.378845,911.765564 746.102051,923.592346 729.661011,933.436523 
	C710.554626,944.876404 690.774109,955.451172 670.450806,964.531494 
	C645.240845,975.795288 618.881409,984.310791 591.556824,989.041992 
	C573.494873,992.169495 555.288086,994.482422 537.116821,996.943604 
	C530.826233,997.795654 524.447388,997.996216 518.304932,998.478882 
	C518.304932,1009.091919 518.304932,1019.513916 518.304932,1030.202881 
	C660.948730,1021.692200 778.043030,963.216003 867.280701,851.839478 
	C930.584595,772.830627 962.732361,681.576355 967.344971,580.199097 
	C956.531372,580.199097 946.457642,580.199097 936.459900,580.199097 
	C935.957642,584.606323 935.482788,588.807678 934.999390,593.008057 
	C933.341125,607.416931 931.841980,621.846558 929.980347,636.229126 
	C927.409424,656.091919 922.068542,675.320068 916.221985,694.429565 
	C909.066650,717.816223 899.590698,740.233887 888.035583,762.611877 
M343.307709,157.964706 
	C347.475891,156.305222 351.544891,154.309479 355.829681,153.045212 
	C373.214417,147.915680 390.458649,142.032715 408.149078,138.293076 
	C426.530579,134.407349 445.352386,132.564133 464.012787,130.059982 
	C470.495605,129.190002 477.071594,129.014420 484.000000,128.491898 
	C484.000000,119.813545 484.000000,111.025925 484.000000,102.238297 
	C484.000000,100.604713 484.000000,98.971138 484.000000,97.190750 
	C400.139008,100.787682 322.768890,124.254089 252.195236,169.056732 
	C173.175369,219.221375 114.101166,287.137451 75.439926,372.331451 
	C50.354881,427.608856 36.782181,485.812531 34.862404,546.762512 
	C45.553078,546.762512 55.627941,546.762512 65.444344,546.762512 
	C66.646751,534.961060 67.415169,523.360718 69.098465,511.894653 
	C71.352753,496.539276 74.096008,481.245789 77.020164,466.000702 
	C82.951347,435.078308 93.986710,405.820160 107.301636,377.445068 
	C118.188171,354.245117 130.892609,331.985382 146.231491,311.398529 
	C156.038055,298.236725 166.169250,285.270508 176.891724,272.852875 
	C184.734451,263.770233 193.477905,255.395996 202.356949,247.294617 
	C214.330032,236.370117 226.327438,225.366028 239.198792,215.556503 
	C259.835632,199.828751 281.916656,186.158569 305.134003,174.533798 
	C317.300934,168.441879 330.031067,163.474884 343.307709,157.964706 
M421.352844,1023.002747 
	C427.592743,1024.001831 433.818085,1025.106201 440.076263,1025.973389 
	C447.977448,1027.068237 455.882751,1028.284912 463.828888,1028.857056 
	C470.443268,1029.333252 477.119141,1028.954712 484.000000,1028.954712 
	C484.000000,1024.268433 484.000000,1019.120056 484.000000,1013.971680 
	C484.000000,1008.709656 484.000000,1003.447632 484.000000,998.568787 
	C370.339935,992.931213 272.820587,950.856689 193.015259,870.988342 
	C113.112091,791.022034 71.314522,693.177795 65.808701,580.315247 
	C55.291866,580.315247 45.219185,580.315247 34.554016,580.315247 
	C35.057266,585.897339 35.405384,591.133911 36.021618,596.338806 
	C37.954582,612.665405 39.214363,629.122742 42.188953,645.261414 
	C45.536919,663.425842 49.745415,681.507080 54.873257,699.250671 
	C62.944229,727.178406 73.627174,754.179932 87.975266,779.561523 
	C96.671158,794.944519 105.169815,810.509216 114.991264,825.165222 
	C124.185257,838.884888 134.728607,851.741211 145.200150,864.550720 
	C153.305832,874.466309 161.935013,883.997375 170.860229,893.185791 
	C177.961502,900.496521 185.716095,907.200073 193.446945,913.864258 
	C201.839600,921.098938 210.130814,928.563782 219.195587,934.881897 
	C235.839386,946.482422 252.563919,958.100952 270.103485,968.244385 
	C287.166107,978.112000 304.784973,987.426575 323.082489,994.644348 
	C344.938904,1003.266174 367.685364,1009.703430 390.229767,1016.476257 
	C400.071838,1019.432983 410.369904,1020.871948 421.352844,1023.002747 
M625.546814,113.997398 
	C590.507690,103.852539 554.675110,98.860069 518.252808,97.236229 
	C518.252808,107.894012 518.252808,118.305359 518.252808,128.418518 
	C631.543640,134.053726 729.105103,176.007812 808.910095,255.923630 
	C888.795288,335.919739 930.675903,433.716034 936.188171,546.722290 
	C946.628052,546.722290 956.700500,546.722290 967.437866,546.722290 
	C966.939819,541.354675 966.574036,536.298035 965.984985,531.267456 
	C964.034241,514.608826 962.791504,497.815948 959.790161,481.345551 
	C956.508118,463.334625 952.291199,445.416473 947.192078,427.831879 
	C938.961670,399.448608 927.936462,372.070129 913.554504,346.182800 
	C906.218567,332.978241 898.742432,319.803772 890.459167,307.187195 
	C882.653320,295.297760 874.156372,283.788788 865.145081,272.782471 
	C853.827209,258.958832 842.081665,245.429932 829.746033,232.513657 
	C821.148621,223.511597 811.500610,215.447342 801.865051,207.519485 
	C790.721985,198.351349 779.377197,189.364822 767.565491,181.091171 
	C756.110168,173.067123 744.316040,165.370224 732.014954,158.747620 
	C714.368469,149.247147 696.469177,140.045425 678.038391,132.222748 
	C661.266846,125.104332 643.641968,119.996384 625.546814,113.997398 
z"/>
<path fill="#000000" opacity="1.000000" stroke="none" 
	d="
M0.999995,608.468628 
	C1.665859,608.653625 2.838481,609.249146 2.921056,609.969666 
	C4.036673,619.702942 4.596709,629.516418 6.103217,639.184082 
	C8.042259,651.627502 10.014235,664.141113 13.224133,676.293823 
	C18.258587,695.354309 23.849779,714.303589 30.144571,732.983337 
	C34.636585,746.313416 40.382908,759.250854 46.075905,772.139832 
	C57.348087,797.659973 71.124054,821.852295 87.093094,844.690430 
	C97.028030,858.898926 107.606186,872.722961 118.750679,886.001953 
	C129.763931,899.124634 141.206192,912.028931 153.641113,923.779358 
	C167.632904,937.000854 182.491867,949.419983 197.809967,961.090454 
	C213.321869,972.908447 229.363358,984.204102 246.064682,994.245239 
	C267.946594,1007.401001 290.902496,1018.625854 314.709564,1028.113647 
	C338.917267,1037.760986 363.669647,1045.532715 389.005463,1051.410522 
	C400.802948,1054.147705 412.804047,1056.094604 424.784698,1057.931274 
	C437.651520,1059.903564 450.560425,1062.090576 463.527069,1062.806641 
	C482.405457,1063.849243 501.352295,1063.915894 520.269104,1063.883789 
	C529.273743,1063.868530 538.309509,1062.955200 547.271667,1061.928467 
	C559.214233,1060.560425 571.176086,1059.104980 582.989136,1056.925537 
	C598.831726,1054.002686 614.791321,1051.227905 630.243225,1046.794922 
	C650.391968,1041.014648 670.387451,1034.423950 689.895813,1026.771973 
	C706.604553,1020.218201 723.063416,1012.613586 738.674561,1003.780212 
	C758.116943,992.779053 777.183594,980.880920 795.281372,967.804565 
	C812.045898,955.691589 827.903076,942.144348 843.079224,928.064026 
	C857.036377,915.114746 870.249512,901.199890 882.517151,886.637817 
	C895.655701,871.042175 907.967102,854.643066 919.446960,837.782715 
	C935.201782,814.643738 948.945374,790.235779 959.309509,764.133423 
	C966.221558,746.725281 973.389587,729.341309 978.873962,711.465149 
	C984.567871,692.906067 988.991333,673.891235 992.803772,654.842285 
	C995.796753,639.887695 996.999573,624.575684 999.057922,609.430603 
	C999.155640,608.711365 999.838257,608.071594 1000.624268,607.697388 
	C1001.000000,780.629578 1001.000000,953.259094 1001.000000,1125.944336 
	C667.775391,1125.944336 334.550720,1125.944336 1.000000,1125.944336 
	C1.000000,953.645935 1.000000,781.291626 0.999995,608.468628 
z"/>
<path fill="#000000" opacity="1.000000" stroke="none" 
	d="
M1001.000000,518.531372 
	C1000.334167,518.346313 999.161560,517.750671 999.078979,517.030090 
	C997.963379,507.296173 997.475464,497.466370 995.884216,487.816589 
	C993.600525,473.967590 990.856873,460.174591 987.742920,446.486572 
	C981.753906,420.160034 973.242249,394.563171 962.780579,369.726685 
	C953.048279,346.621826 942.030701,324.030457 928.326538,302.956543 
	C917.866150,286.870911 906.911987,271.090881 895.719604,255.503708 
	C890.488220,248.218216 884.341736,241.558670 878.311523,234.885223 
	C869.344177,224.961426 860.687073,214.649933 850.858948,205.636353 
	C835.801270,191.826660 820.108337,178.674347 804.238159,165.793594 
	C775.533691,142.496140 743.633606,124.284042 710.209045,108.750854 
	C686.634949,97.795441 662.395630,88.485085 637.160461,81.988312 
	C624.240356,78.662033 611.401917,74.910362 598.340271,72.274017 
	C586.420898,69.868240 574.238770,68.783638 562.192566,66.982903 
	C536.978943,63.213856 511.582886,62.406544 486.184875,63.160809 
	C470.987946,63.612125 455.839111,65.665245 440.667084,66.980492 
	C417.059448,69.027016 393.852264,73.526039 371.184387,80.169838 
	C351.217499,86.021996 331.388245,92.598228 312.039307,100.227089 
	C295.340698,106.810982 278.871857,114.387543 263.264954,123.226471 
	C243.823593,134.237000 224.765747,146.156265 206.668549,159.240845 
	C189.906326,171.360214 174.044998,184.903610 158.867691,198.984787 
	C144.909485,211.934937 131.633331,225.804718 119.438507,240.422150 
	C105.653648,256.945496 92.801430,274.338379 80.649345,292.109222 
	C65.476570,314.297394 53.300877,338.208008 42.440899,362.858948 
	C30.693018,389.525269 21.419067,416.971405 14.542238,445.194580 
	C10.875475,460.243378 8.585366,475.644348 6.078824,490.952667 
	C4.631311,499.793121 4.004298,508.767273 2.945056,517.673767 
	C2.888913,518.145874 2.245583,518.548157 1.437807,518.991455 
	C1.000000,346.370422 1.000000,173.740845 1.000000,1.055637 
	C334.224609,1.055637 667.449280,1.055637 1001.000000,1.055637 
	C1001.000000,173.354095 1001.000000,345.708374 1001.000000,518.531372 
z"/>
<path fill="#000000" opacity="1.000000" stroke="none" 
	d="
M702.714355,215.275421 
	C715.427612,223.598511 728.247986,231.134537 740.169800,239.893661 
	C758.726257,253.527313 776.407532,268.389130 791.803711,285.551117 
	C804.639709,299.859222 817.226379,314.558075 828.309692,330.225433 
	C839.891846,346.597931 850.201843,363.974030 859.867126,381.571014 
	C870.517090,400.960907 879.011658,421.476898 884.891235,442.847748 
	C890.135254,461.908691 895.229492,481.097351 898.703979,500.531067 
	C901.459290,515.942261 901.666321,531.809326 902.997986,547.474487 
	C903.345154,551.559082 904.018372,555.652527 903.940979,559.730530 
	C903.542175,580.740601 902.187073,601.637268 899.205505,622.511353 
	C895.403992,649.125610 888.713135,674.937927 879.786438,700.143982 
	C874.927368,713.864197 868.343323,726.989624 862.264893,740.258545 
	C850.600647,765.721497 835.693420,789.313843 818.150696,811.005066 
	C805.119812,827.117493 791.087769,842.590759 776.169556,856.966309 
	C753.923767,878.402832 728.931274,896.452209 702.169189,912.042175 
	C674.979004,927.881409 646.390686,940.519531 616.198120,949.146851 
	C599.043701,954.048462 581.455566,957.612000 563.889099,960.830078 
	C551.724365,963.058594 539.291931,964.193054 526.927307,964.871033 
	C511.038422,965.742249 495.043488,966.652771 479.190948,965.783203 
	C450.490021,964.208862 422.006226,959.965149 394.421326,951.777527 
	C375.722137,946.227417 357.406738,939.198059 339.296448,931.895874 
	C314.720428,921.986694 291.996552,908.509399 270.519653,893.034363 
	C260.125458,885.544922 249.920532,877.734985 240.144623,869.461975 
	C230.578842,861.366699 220.970917,853.123474 212.626251,843.827759 
	C198.896591,828.533264 185.204849,813.026550 173.293762,796.327759 
	C161.375137,779.618469 150.873306,761.758423 141.180481,743.637878 
	C129.524933,721.848022 120.419868,698.783264 114.172119,674.833740 
	C109.702911,657.701843 105.997391,640.302551 103.205376,622.822266 
	C100.862190,608.152039 100.220177,593.201233 99.045433,578.357178 
	C98.446777,570.792480 97.615379,563.138916 98.145714,555.614075 
	C99.340324,538.663879 101.185669,521.754700 103.007042,504.854736 
	C105.871933,478.272278 113.091652,452.715210 122.043892,427.641022 
	C131.626999,400.799896 143.546127,375.003845 159.397446,351.256653 
	C169.709579,335.807831 180.204422,320.381409 191.893661,305.980988 
	C202.393860,293.045441 214.133224,280.995392 226.220871,269.495392 
	C247.213150,249.523697 270.306732,231.993851 295.380249,217.541992 
	C312.710938,207.552902 331.208771,199.556488 349.338226,190.993942 
	C369.762573,181.347504 391.501434,175.495361 413.385437,170.427826 
	C425.982025,167.510910 438.915741,166.029648 451.715240,164.013641 
	C470.358765,161.077194 489.169037,160.304230 507.965668,161.126801 
	C524.493652,161.850082 540.999023,163.409317 557.469177,165.053070 
	C577.924866,167.094620 597.784180,172.202194 617.429077,178.042694 
	C642.885620,185.611038 667.187439,196.067810 690.721680,208.323837 
	C694.705505,210.398544 698.523865,212.790955 702.714355,215.275421 
M579.000000,501.499939 
	C579.000000,484.837738 578.953735,468.175323 579.036255,451.513550 
	C579.054443,447.864441 577.833862,445.935913 573.912292,445.970581 
	C563.915771,446.059082 553.917664,446.040131 543.920715,445.978912 
	C540.299744,445.956726 538.902283,447.711945 538.976746,451.180847 
	C539.072632,455.652771 539.000061,460.128326 539.000061,464.559814 
	C537.477966,463.993927 536.144470,463.072174 534.805969,463.064972 
	C516.977966,462.968811 499.147644,462.900757 481.323639,463.186096 
	C479.861237,463.209503 478.111938,465.661255 477.119507,467.350922 
	C476.485840,468.429871 477.000854,470.183502 477.000854,471.799164 
	C472.221954,471.799164 467.805511,471.799164 463.000000,471.799164 
	C463.000000,464.983643 462.852692,458.357452 463.052307,451.741760 
	C463.183075,447.409149 461.342560,445.875732 457.138763,445.948456 
	C447.644135,446.112671 438.143311,446.096527 428.647980,445.954041 
	C424.681213,445.894501 422.941681,447.358521 422.957428,451.453552 
	C423.045868,474.447052 423.047302,497.441284 422.955383,520.434753 
	C422.939301,524.455688 424.492889,526.113770 428.536377,526.044312 
	C437.031616,525.898376 445.531067,526.000000 454.028809,526.000000 
	C462.929565,526.000000 462.926086,526.000000 463.005402,516.871399 
	C463.013275,515.962830 463.095520,515.054993 463.199005,513.085754 
	C466.193024,515.839478 468.248962,518.173401 470.720551,519.918579 
	C477.477051,524.689392 482.685547,529.971802 481.108734,539.329590 
	C480.453522,543.218079 481.162537,547.317566 480.956390,551.305786 
	C480.729645,555.691528 482.754761,557.103210 486.909271,557.050537 
	C498.404327,556.904785 509.902496,557.006104 521.399414,556.997681 
	C527.938110,556.992859 528.743591,555.905579 529.058716,549.274475 
	C529.493286,540.131775 527.390137,530.822632 530.994019,521.865295 
	C533.587280,515.419800 535.875366,508.851593 538.299561,502.338135 
	C539.000061,508.609467 539.065979,514.711365 538.974487,520.810913 
	C538.922485,524.275879 540.289673,526.041931 543.912292,526.020447 
	C553.909241,525.961060 563.907166,525.955200 573.903992,526.024109 
	C577.414795,526.048340 579.075500,524.582520 579.024292,520.994507 
	C578.936340,514.830750 578.999939,508.664825 579.000000,501.499939 
M333.500000,575.000000 
	C291.840851,575.000000 250.181702,575.000000 208.522552,575.000000 
	C207.356094,575.000000 206.063080,574.679688 205.053284,575.077637 
	C203.595642,575.652222 201.115677,576.998230 201.233124,577.574890 
	C201.589920,579.326904 202.665482,581.290039 204.076721,582.355774 
	C205.189499,583.196045 207.213211,582.978760 208.832352,582.978943 
	C403.630737,583.001221 598.429077,583.000732 793.227478,582.994141 
	C796.635925,582.994019 800.891541,583.567322 800.871521,578.562134 
	C800.850281,573.248596 796.210815,575.079224 793.417542,575.077637 
	C640.445068,574.990051 487.472534,575.000000 333.500000,575.000000 
M214.258850,665.956421 
	C216.498703,657.698303 218.738556,649.440125 221.197922,640.372681 
	C222.989410,645.930603 224.347809,650.629150 226.048050,655.200684 
	C226.814850,657.262451 228.262833,659.070984 229.401733,660.994385 
	C230.924591,659.443237 232.838516,658.120178 233.899734,656.299927 
	C237.638428,649.886841 241.084564,643.303223 244.641678,636.784302 
	C246.216232,640.119385 246.611282,643.234131 246.999298,646.349670 
	C247.702454,651.995605 248.194244,657.682434 249.278793,663.253967 
	C249.493011,664.354431 252.133682,665.914429 253.392517,665.702332 
	C256.956543,665.101746 260.384277,663.692383 263.969208,662.569092 
	C263.969208,659.602844 264.276794,656.744019 263.915710,653.972351 
	C262.385315,642.225220 260.241455,630.543640 259.112976,618.762390 
	C257.911621,606.219666 258.109100,605.984619 245.491165,609.084473 
	C243.850830,609.487488 241.875656,610.750000 241.128510,612.176392 
	C238.100128,617.957764 235.490875,623.958679 232.463226,630.443604 
	C230.397369,623.574890 228.618896,617.422852 226.674637,611.323608 
	C225.970291,609.114075 225.451553,605.729431 222.067078,607.134705 
	C218.885956,608.455627 214.113510,606.846375 212.915298,612.403748 
	C209.494812,628.267944 205.647446,644.039917 202.133881,659.884949 
	C201.918259,660.857361 202.874939,662.830750 203.742249,663.169006 
	C206.855957,664.383484 210.165680,665.095215 214.258850,665.956421 
M775.264038,635.205811 
	C777.645569,634.064331 780.027161,632.922852 782.408752,631.781433 
	C783.272400,634.344543 785.011292,636.970093 784.833740,639.458984 
	C784.326477,646.566895 783.009827,653.615295 782.086548,660.696899 
	C781.905273,662.087402 782.060486,663.521790 782.060486,665.761536 
	C787.887817,664.281860 792.949707,662.996582 798.075195,661.695129 
	C798.075195,657.738708 797.858032,654.233948 798.122925,650.766113 
	C798.594971,644.586731 799.693542,638.441284 799.908325,632.260010 
	C800.135193,625.728516 797.537781,622.709412 791.214478,620.696045 
	C784.179321,618.456116 778.458801,622.270813 772.363647,624.636108 
	C768.546631,618.632629 765.365540,618.498779 750.230469,623.913879 
	C750.071960,622.278564 749.917725,620.687256 749.741760,618.871948 
	C744.320740,620.157104 739.206543,621.369507 733.911377,622.624878 
	C732.659729,636.693298 731.409058,650.751038 730.040039,666.138367 
	C735.727295,664.209473 740.565247,662.668701 745.302429,660.863525 
	C746.091675,660.562683 746.832031,659.151123 746.930054,658.185364 
	C747.410156,653.453918 747.682129,648.700684 747.995667,643.953064 
	C748.381226,638.114868 749.100159,632.509033 757.285034,630.965637 
	C762.190430,642.091187 755.705444,653.533875 757.342163,665.508179 
	C762.318848,664.251160 767.059998,663.053650 771.826782,661.849609 
	C772.233582,657.187500 772.499512,652.776306 773.034729,648.398071 
	C773.543335,644.237671 774.333557,640.111755 775.264038,635.205811 
M645.579163,612.948364 
	C642.686646,616.824585 639.189575,620.391846 637.019287,624.637207 
	C631.361755,635.704163 633.392639,651.132812 642.110596,658.747864 
	C649.921692,665.570862 658.840149,666.233582 668.133850,664.218079 
	C674.785889,662.775452 680.740601,659.842285 680.125061,651.142090 
	C680.031738,649.822144 681.172485,648.294861 682.025085,647.058411 
	C683.095398,645.506042 684.930420,644.340698 685.585754,642.674194 
	C686.655701,639.953064 687.038513,636.961670 687.948792,633.068237 
	C679.961060,633.068237 672.422546,632.953064 664.896545,633.207214 
	C663.905151,633.240662 662.465698,635.014893 662.118225,636.234741 
	C661.159546,639.600098 660.670044,643.099060 659.947937,646.785156 
	C662.419739,646.940247 664.673767,647.081665 666.927856,647.223145 
	C667.235718,647.663208 667.543640,648.103333 667.851562,648.543457 
	C666.331482,650.001709 664.712219,652.752441 663.312378,652.644897 
	C660.533508,652.431641 657.184509,651.287048 655.358215,649.327637 
	C653.455811,647.286621 652.433044,643.893555 652.148987,640.981995 
	C651.456909,633.888977 652.812622,626.909241 659.054382,622.694824 
	C664.482239,619.029907 670.166870,620.542358 675.228333,624.602234 
	C676.367859,625.516296 678.093506,625.699463 680.000000,626.379883 
	C680.000000,621.917603 680.303284,618.067627 679.862671,614.304749 
	C679.664185,612.610107 678.349731,610.257751 676.913757,609.622192 
	C666.206787,604.883179 655.843811,605.831482 645.579163,612.948364 
M348.646606,617.881409 
	C348.260559,619.238586 347.874512,620.595825 347.483002,621.972229 
	C346.911133,621.972229 346.358337,622.115540 345.921173,621.951233 
	C336.490631,618.406494 327.748688,621.259705 321.954956,629.506042 
	C318.253479,634.774414 317.719971,640.595154 317.975647,646.727417 
	C318.278137,653.982483 320.488831,660.586121 327.186310,663.856018 
	C333.027405,666.707825 339.253296,665.574280 344.834290,661.093323 
	C344.954315,662.538025 345.051727,663.710449 345.205231,665.557739 
	C350.362549,664.191040 355.017242,663.039429 359.599823,661.650085 
	C360.245819,661.454224 360.849762,660.132996 360.947723,659.272888 
	C361.704742,652.626709 362.294952,645.961670 363.011841,639.310608 
	C363.588043,633.964722 364.410065,628.642212 364.866913,623.287476 
	C365.407623,616.950134 365.673370,610.589294 366.100769,603.537537 
	C363.223328,604.110107 361.025726,604.485046 358.858276,604.989441 
	C349.046112,607.273071 349.049164,607.286194 348.646606,617.881409 
M530.404297,608.000000 
	C527.083252,608.000000 523.762268,608.000000 520.538879,608.000000 
	C518.121399,612.209534 515.807922,616.237976 513.020386,621.091858 
	C516.493958,621.091858 518.592163,621.091858 520.634644,621.091858 
	C522.044312,627.283020 519.731384,632.164856 516.618225,636.834351 
	C512.729309,642.667603 512.764343,642.792358 519.114746,644.902466 
	C518.675598,651.861755 518.233459,658.868042 517.709290,667.174316 
	C523.286804,665.177979 527.809875,663.661987 532.227722,661.884399 
	C533.036621,661.559021 533.798706,660.220764 533.928040,659.261780 
	C534.428894,655.549072 535.067322,651.781616 534.891968,648.070618 
	C534.699219,643.990723 536.570374,642.881409 540.083130,642.992188 
	C541.578613,643.039368 543.235291,643.407837 544.535950,642.902649 
	C546.400208,642.178467 548.546021,641.149353 549.587585,639.592224 
	C550.961609,637.538208 551.207703,634.767212 552.260620,632.450745 
	C553.374023,630.001221 553.447937,629.423950 550.272522,629.813965 
	C545.922180,630.348328 541.457092,629.947571 537.000122,629.947571 
	C537.000122,628.485474 537.002502,627.654541 536.999756,626.823547 
	C536.977112,620.012451 536.976868,620.010010 543.813293,620.000977 
	C547.790710,619.995789 551.768127,620.000000 555.902222,620.000000 
	C557.474121,615.733459 558.978394,611.650574 560.874878,606.503296 
	C550.111938,607.049072 540.736084,607.524536 530.404297,608.000000 
M448.997131,631.279724 
	C448.433594,635.633179 447.732208,639.974243 447.338318,644.343018 
	C446.723511,651.162415 446.317078,658.000549 445.733063,666.063232 
	C451.427765,664.155945 456.115540,662.629211 460.757233,660.973145 
	C461.300140,660.779419 461.879761,659.905701 461.950073,659.290894 
	C462.690918,652.814514 463.427216,646.334534 463.967377,639.839233 
	C464.346558,635.279785 468.283844,630.955750 472.771729,631.157349 
	C473.891998,631.207764 475.834503,633.176086 475.842804,634.274597 
	C475.879852,639.183594 475.351318,644.096558 475.031860,649.008484 
	C474.693726,654.207520 474.360992,659.406860 474.027191,664.586548 
	C485.915466,665.850830 489.761444,662.455688 490.086212,651.512939 
	C490.239746,646.339478 491.585052,641.210327 491.907837,636.031006 
	C492.481049,626.832886 488.984467,616.704956 475.577972,620.822205 
	C472.262360,621.840393 468.903748,622.718567 465.648834,623.637512 
	C465.735382,622.269348 465.836090,620.677063 465.959778,618.721619 
	C461.235260,619.918579 457.237457,621.495361 453.144135,621.803711 
	C449.339661,622.090271 448.704102,623.770691 448.983124,626.862244 
	C449.087433,628.018005 448.999878,629.190979 448.997131,631.279724 
M313.985046,647.909546 
	C313.990021,645.909973 313.821289,643.892212 314.029022,641.913940 
	C315.138245,631.352539 310.073914,623.505615 297.933197,620.537781 
	C294.333588,619.657959 290.391571,619.719666 286.663116,620.030151 
	C284.944000,620.173340 283.486816,622.320618 281.696655,622.933777 
	C268.368744,627.497742 263.439758,647.440369 272.497284,658.194519 
	C281.654114,669.066589 308.135193,668.213745 313.985046,647.909546 
M696.999878,659.512207 
	C699.749695,664.230835 696.368835,667.828674 694.715210,671.706665 
	C692.191345,677.625488 692.151428,677.565430 698.201721,679.059875 
	C699.592834,679.403503 700.929443,680.620117 702.225830,680.526855 
	C703.769775,680.415710 706.108887,679.718506 706.615845,678.600708 
	C712.966553,664.595459 719.056519,650.471802 725.192261,636.369385 
	C727.015320,632.179321 728.772644,627.960693 730.647766,623.548889 
	C727.286194,622.799622 724.612122,622.617554 722.303894,621.603027 
	C717.475830,619.481018 714.816528,620.098328 713.850098,625.916748 
	C713.204712,629.802124 711.413025,633.523315 709.910950,637.227295 
	C709.311768,638.704895 708.110901,639.938416 706.705139,641.977661 
	C705.234741,633.904114 703.970337,626.962097 702.687683,619.919312 
	C697.645203,621.204773 692.853821,622.426147 687.780090,623.719604 
	C690.839844,635.368469 693.899719,647.017700 696.999878,659.512207 
M408.000000,634.559509 
	C407.170410,623.949768 397.813904,618.475159 385.827911,620.905396 
	C372.032379,623.702454 365.581635,637.582581 368.351501,649.134338 
	C371.630310,662.808655 381.695618,666.708252 395.074341,664.803467 
	C405.948669,663.255188 406.429413,661.953674 405.895233,650.851624 
	C405.883759,650.612915 405.558533,650.389282 405.377441,650.160339 
	C392.590912,655.336548 388.052338,655.856384 384.546417,649.000000 
	C387.085114,649.000000 389.582031,649.078369 392.072540,648.985535 
	C400.030884,648.688904 407.493835,642.292053 408.000000,634.559509 
M601.423523,649.936462 
	C601.974487,644.609985 602.525513,639.283569 603.065857,634.059875 
	C611.349731,633.937561 614.329224,631.221985 614.627869,623.906006 
	C611.175598,623.906006 607.728271,623.906006 603.995605,623.906006 
	C604.407776,618.757080 604.791748,613.959595 605.190430,608.979065 
	C600.854858,609.791138 597.186829,610.348083 593.586243,611.192444 
	C590.552124,611.903992 588.391907,613.193115 588.856445,617.199585 
	C589.169922,619.903320 589.149353,622.640503 585.413635,624.581055 
	C582.676453,626.002930 581.403381,630.243347 578.844543,634.208923 
	C582.845703,634.208923 585.401062,634.208923 587.522217,634.208923 
	C586.997437,641.319763 585.656982,648.060425 586.227783,654.635132 
	C586.943298,662.875122 591.451965,665.757141 598.404236,664.933655 
	C603.703857,664.305847 608.932068,663.076233 614.397888,662.076721 
	C613.312927,657.949158 612.518066,654.925232 611.727783,651.918579 
	C609.283081,652.410400 607.338074,652.626465 605.511292,653.211426 
	C602.923889,654.039795 601.959351,653.043701 601.423523,649.936462 
M444.052734,630.494141 
	C444.825317,627.130798 445.597931,623.767456 446.728149,618.847290 
	C440.559174,620.927551 435.887482,622.502930 430.905182,624.183044 
	C431.308624,622.307373 431.539032,621.236206 431.833618,619.866638 
	C426.869141,621.000061 422.432831,621.810913 418.146942,623.115845 
	C416.879944,623.501587 415.351318,625.158752 415.121735,626.443909 
	C414.236359,631.400879 413.678528,636.431213 413.276825,641.456360 
	C412.653442,649.254761 412.257660,657.071228 411.690979,666.060547 
	C417.933136,663.995239 423.015228,662.313782 427.906128,660.695496 
	C428.294189,654.388550 428.484344,648.625549 429.040009,642.898071 
	C429.860931,634.436401 434.303986,631.135925 442.835815,632.242188 
	C443.179199,632.286743 443.610901,631.650452 444.052734,630.494141 
M561.001465,625.916382 
	C559.979187,638.803467 558.956970,651.690552 557.838745,665.786987 
	C563.326782,663.893860 568.098877,662.327820 572.784607,660.535950 
	C573.412903,660.295654 573.864624,658.942444 573.959839,658.057373 
	C575.313416,645.476868 576.591431,632.888245 577.930481,619.885071 
	C573.644958,620.838501 569.727783,621.572998 565.897583,622.624329 
	C564.182190,623.095215 562.641113,624.200989 561.001465,625.916382 
M570.766968,602.034973 
	C569.363281,602.358643 567.900757,602.531433 566.572998,603.049683 
	C565.317505,603.539612 563.321594,604.246826 563.179077,605.110596 
	C562.537598,608.998047 562.439575,612.975220 562.144409,616.935730 
	C577.700928,617.171570 579.701782,615.298645 578.911072,601.797058 
	C578.902344,601.648010 578.758667,601.506836 578.458191,600.967651 
	C576.291138,601.296692 573.967041,601.649597 570.766968,602.034973 
z"/>
<path fill="#000000" opacity="1.000000" stroke="none" 
	d="
M888.268860,762.305054 
	C899.590698,740.233887 909.066650,717.816223 916.221985,694.429565 
	C922.068542,675.320068 927.409424,656.091919 929.980347,636.229126 
	C931.841980,621.846558 933.341125,607.416931 934.999390,593.008057 
	C935.482788,588.807678 935.957642,584.606323 936.459900,580.199097 
	C946.457642,580.199097 956.531372,580.199097 967.344971,580.199097 
	C962.732361,681.576355 930.584595,772.830627 867.280701,851.839478 
	C778.043030,963.216003 660.948730,1021.692200 518.304932,1030.202881 
	C518.304932,1019.513916 518.304932,1009.091919 518.304932,998.478882 
	C524.447388,997.996216 530.826233,997.795654 537.116821,996.943604 
	C555.288086,994.482422 573.494873,992.169495 591.556824,989.041992 
	C618.881409,984.310791 645.240845,975.795288 670.450806,964.531494 
	C690.774109,955.451172 710.554626,944.876404 729.661011,933.436523 
	C746.102051,923.592346 761.378845,911.765564 776.905273,900.451538 
	C782.846069,896.122375 788.231018,890.970398 793.548706,885.859741 
	C801.862366,877.869873 810.445374,870.062378 817.942871,861.342407 
	C831.968201,845.030396 846.178650,828.748657 858.651184,811.269226 
	C869.624451,795.890991 878.329041,778.893982 888.268860,762.305054 
z"/>
<path fill="#000000" opacity="1.000000" stroke="none" 
	d="
M342.907288,157.982300 
	C330.031067,163.474884 317.300934,168.441879 305.134003,174.533798 
	C281.916656,186.158569 259.835632,199.828751 239.198792,215.556503 
	C226.327438,225.366028 214.330032,236.370117 202.356949,247.294617 
	C193.477905,255.395996 184.734451,263.770233 176.891724,272.852875 
	C166.169250,285.270508 156.038055,298.236725 146.231491,311.398529 
	C130.892609,331.985382 118.188171,354.245117 107.301636,377.445068 
	C93.986710,405.820160 82.951347,435.078308 77.020164,466.000702 
	C74.096008,481.245789 71.352753,496.539276 69.098465,511.894653 
	C67.415169,523.360718 66.646751,534.961060 65.444344,546.762512 
	C55.627941,546.762512 45.553078,546.762512 34.862404,546.762512 
	C36.782181,485.812531 50.354881,427.608856 75.439926,372.331451 
	C114.101166,287.137451 173.175369,219.221375 252.195236,169.056732 
	C322.768890,124.254089 400.139008,100.787682 484.000000,97.190750 
	C484.000000,98.971138 484.000000,100.604713 484.000000,102.238297 
	C484.000000,111.025925 484.000000,119.813545 484.000000,128.491898 
	C477.071594,129.014420 470.495605,129.190002 464.012787,130.059982 
	C445.352386,132.564133 426.530579,134.407349 408.149078,138.293076 
	C390.458649,142.032715 373.214417,147.915680 355.829681,153.045212 
	C351.544891,154.309479 347.475891,156.305222 342.907288,157.982300 
z"/>
<path fill="#000000" opacity="1.000000" stroke="none" 
	d="
M420.906860,1023.001465 
	C410.369904,1020.871948 400.071838,1019.432983 390.229767,1016.476257 
	C367.685364,1009.703430 344.938904,1003.266174 323.082489,994.644348 
	C304.784973,987.426575 287.166107,978.112000 270.103485,968.244385 
	C252.563919,958.100952 235.839386,946.482422 219.195587,934.881897 
	C210.130814,928.563782 201.839600,921.098938 193.446945,913.864258 
	C185.716095,907.200073 177.961502,900.496521 170.860229,893.185791 
	C161.935013,883.997375 153.305832,874.466309 145.200150,864.550720 
	C134.728607,851.741211 124.185257,838.884888 114.991264,825.165222 
	C105.169815,810.509216 96.671158,794.944519 87.975266,779.561523 
	C73.627174,754.179932 62.944229,727.178406 54.873257,699.250671 
	C49.745415,681.507080 45.536919,663.425842 42.188953,645.261414 
	C39.214363,629.122742 37.954582,612.665405 36.021618,596.338806 
	C35.405384,591.133911 35.057266,585.897339 34.554016,580.315247 
	C45.219185,580.315247 55.291866,580.315247 65.808701,580.315247 
	C71.314522,693.177795 113.112091,791.022034 193.015259,870.988342 
	C272.820587,950.856689 370.339935,992.931213 484.000000,998.568787 
	C484.000000,1003.447632 484.000000,1008.709656 484.000000,1013.971680 
	C484.000000,1019.120056 484.000000,1024.268433 484.000000,1028.954712 
	C477.119141,1028.954712 470.443268,1029.333252 463.828888,1028.857056 
	C455.882751,1028.284912 447.977448,1027.068237 440.076263,1025.973389 
	C433.818085,1025.106201 427.592743,1024.001831 420.906860,1023.001465 
z"/>
<path fill="#000000" opacity="1.000000" stroke="none" 
	d="
M625.970032,113.999809 
	C643.641968,119.996384 661.266846,125.104332 678.038391,132.222748 
	C696.469177,140.045425 714.368469,149.247147 732.014954,158.747620 
	C744.316040,165.370224 756.110168,173.067123 767.565491,181.091171 
	C779.377197,189.364822 790.721985,198.351349 801.865051,207.519485 
	C811.500610,215.447342 821.148621,223.511597 829.746033,232.513657 
	C842.081665,245.429932 853.827209,258.958832 865.145081,272.782471 
	C874.156372,283.788788 882.653320,295.297760 890.459167,307.187195 
	C898.742432,319.803772 906.218567,332.978241 913.554504,346.182800 
	C927.936462,372.070129 938.961670,399.448608 947.192078,427.831879 
	C952.291199,445.416473 956.508118,463.334625 959.790161,481.345551 
	C962.791504,497.815948 964.034241,514.608826 965.984985,531.267456 
	C966.574036,536.298035 966.939819,541.354675 967.437866,546.722290 
	C956.700500,546.722290 946.628052,546.722290 936.188171,546.722290 
	C930.675903,433.716034 888.795288,335.919739 808.910095,255.923630 
	C729.105103,176.007812 631.543640,134.053726 518.252808,128.418518 
	C518.252808,118.305359 518.252808,107.894012 518.252808,97.236229 
	C554.675110,98.860069 590.507690,103.852539 625.970032,113.999809 
z"/>
<path fill="#FFFFFF" opacity="1.000000" stroke="none" 
	d="
M579.000000,501.999878 
	C578.999939,508.664825 578.936340,514.830750 579.024292,520.994507 
	C579.075500,524.582520 577.414795,526.048340 573.903992,526.024109 
	C563.907166,525.955200 553.909241,525.961060 543.912292,526.020447 
	C540.289673,526.041931 538.922485,524.275879 538.974487,520.810913 
	C539.065979,514.711365 539.000061,508.609467 538.299561,502.338135 
	C535.875366,508.851593 533.587280,515.419800 530.994019,521.865295 
	C527.390137,530.822632 529.493286,540.131775 529.058716,549.274475 
	C528.743591,555.905579 527.938110,556.992859 521.399414,556.997681 
	C509.902496,557.006104 498.404327,556.904785 486.909271,557.050537 
	C482.754761,557.103210 480.729645,555.691528 480.956390,551.305786 
	C481.162537,547.317566 480.453522,543.218079 481.108734,539.329590 
	C482.685547,529.971802 477.477051,524.689392 470.720551,519.918579 
	C468.248962,518.173401 466.193024,515.839478 463.199005,513.085754 
	C463.095520,515.054993 463.013275,515.962830 463.005402,516.871399 
	C462.926086,526.000000 462.929565,526.000000 454.028809,526.000000 
	C445.531067,526.000000 437.031616,525.898376 428.536377,526.044312 
	C424.492889,526.113770 422.939301,524.455688 422.955383,520.434753 
	C423.047302,497.441284 423.045868,474.447052 422.957428,451.453552 
	C422.941681,447.358521 424.681213,445.894501 428.647980,445.954041 
	C438.143311,446.096527 447.644135,446.112671 457.138763,445.948456 
	C461.342560,445.875732 463.183075,447.409149 463.052307,451.741760 
	C462.852692,458.357452 463.000000,464.983643 463.000000,471.799164 
	C467.805511,471.799164 472.221954,471.799164 477.000854,471.799164 
	C477.000854,470.183502 476.485840,468.429871 477.119507,467.350922 
	C478.111938,465.661255 479.861237,463.209503 481.323639,463.186096 
	C499.147644,462.900757 516.977966,462.968811 534.805969,463.064972 
	C536.144470,463.072174 537.477966,463.993927 539.000061,464.559814 
	C539.000061,460.128326 539.072632,455.652771 538.976746,451.180847 
	C538.902283,447.711945 540.299744,445.956726 543.920715,445.978912 
	C553.917664,446.040131 563.915771,446.059082 573.912292,445.970581 
	C577.833862,445.935913 579.054443,447.864441 579.036255,451.513550 
	C578.953735,468.175323 579.000000,484.837738 579.000000,501.999878 
M468.851227,484.000061 
	C470.847687,483.999420 472.854553,484.115356 474.835175,483.938110 
	C475.580688,483.871368 476.265320,483.125061 476.977753,482.688599 
	C476.227661,482.126190 475.491943,481.100708 474.725128,481.076904 
	C469.905029,480.927277 465.075897,480.912048 460.253967,481.028168 
	C456.458801,481.119537 454.898254,479.435974 454.964233,475.665466 
	C455.088501,468.562744 455.000061,461.456238 455.000061,454.206360 
	C446.837097,454.206360 439.108459,454.206360 431.347290,454.206360 
	C431.347290,475.577881 431.347290,496.741211 431.347290,517.663086 
	C439.430054,517.663086 447.163208,517.663086 455.000000,517.663086 
	C455.000000,511.179382 454.999756,505.032135 455.000031,498.884888 
	C455.000397,491.414215 455.064880,491.344971 462.606323,490.692047 
	C462.292938,490.311890 461.979553,489.931763 461.666168,489.551605 
	C463.762146,487.701447 465.858124,485.851288 468.851227,484.000061 
M571.000000,478.500000 
	C571.000000,470.406891 571.000000,462.313782 571.000000,454.275940 
	C562.702576,454.275940 554.968567,454.275940 547.000000,454.275940 
	C547.000000,460.352509 547.000000,466.155121 547.000000,471.957703 
	C547.000000,480.223328 547.000000,480.223328 539.248047,481.557800 
	C539.248047,484.671112 539.248047,487.772644 539.248047,490.857635 
	C546.986938,491.173859 546.999146,491.185883 546.999878,498.558380 
	C547.000549,504.982056 547.000000,511.405731 547.000000,517.701660 
	C555.343201,517.701660 563.078308,517.701660 571.000000,517.701660 
	C571.000000,504.769409 571.000000,492.134705 571.000000,478.500000 
M520.000000,529.797852 
	C520.294067,528.397095 520.461853,526.955017 520.903442,525.602417 
	C523.221008,518.503174 525.607910,511.426575 527.965027,504.359070 
	C519.143982,504.359070 510.598480,504.359070 502.000000,504.359070 
	C502.000000,505.715424 501.924133,506.719452 502.012390,507.708801 
	C502.559906,513.847351 500.822418,515.380737 494.709839,515.055176 
	C489.644775,514.785400 484.553864,515.000000 478.350555,515.000000 
	C480.139526,516.464783 481.041290,517.281128 482.020111,517.991211 
	C486.407928,521.174561 489.896301,524.527222 489.137329,530.884521 
	C488.477722,536.409363 489.000000,542.075378 489.000000,547.787231 
	C499.518616,547.787231 509.575928,547.787231 520.000000,547.787231 
	C520.000000,541.967041 520.000000,536.352295 520.000000,529.797852 
M494.000000,497.585541 
	C494.000000,496.147125 494.000000,494.708710 494.000000,493.259888 
	C486.409393,493.259888 479.337769,493.259888 472.263123,493.259888 
	C472.263123,497.930389 472.263123,502.336273 472.263123,506.734741 
	C479.601288,506.734741 486.673431,506.734741 494.000000,506.734741 
	C494.000000,503.833435 494.000000,501.194519 494.000000,497.585541 
M503.000214,473.690796 
	C503.000214,481.071075 503.000214,488.451355 503.000214,495.725159 
	C506.652863,495.725159 509.712830,495.725159 512.784851,495.725159 
	C512.784851,487.415710 512.784851,479.382904 512.784851,470.205872 
	C509.232849,471.122406 506.118225,471.926117 503.000214,473.690796 
M527.424011,495.999695 
	C528.282288,495.201782 529.864380,494.422791 529.885742,493.602997 
	C530.078979,486.202484 529.998779,478.794830 529.998779,471.197937 
	C527.227844,471.197937 524.835693,471.197937 522.280884,471.197937 
	C522.280884,479.489899 522.280884,487.649139 522.280884,496.000000 
	C523.864380,496.000000 525.167969,496.000000 527.424011,495.999695 
M491.392212,471.000305 
	C489.324371,471.000305 487.256500,471.000305 485.248566,471.000305 
	C485.248566,475.644989 485.248566,479.689209 485.248566,483.785431 
	C488.217407,483.785431 490.933624,483.785431 493.999908,483.785431 
	C493.999908,480.483765 494.144989,477.380524 493.924042,474.303497 
	C493.842804,473.171844 492.896759,472.102264 491.392212,471.000305 
z"/>
<path fill="#FFFFFF" opacity="1.000000" stroke="none" 
	d="
M334.000000,575.000000 
	C487.472534,575.000000 640.445068,574.990051 793.417542,575.077637 
	C796.210815,575.079224 800.850281,573.248596 800.871521,578.562134 
	C800.891541,583.567322 796.635925,582.994019 793.227478,582.994141 
	C598.429077,583.000732 403.630737,583.001221 208.832352,582.978943 
	C207.213211,582.978760 205.189499,583.196045 204.076721,582.355774 
	C202.665482,581.290039 201.589920,579.326904 201.233124,577.574890 
	C201.115677,576.998230 203.595642,575.652222 205.053284,575.077637 
	C206.063080,574.679688 207.356094,575.000000 208.522552,575.000000 
	C250.181702,575.000000 291.840851,575.000000 334.000000,575.000000 
z"/>
<path fill="#FFFFFF" opacity="1.000000" stroke="none" 
	d="
M213.830078,665.976685 
	C210.165680,665.095215 206.855957,664.383484 203.742249,663.169006 
	C202.874939,662.830750 201.918259,660.857361 202.133881,659.884949 
	C205.647446,644.039917 209.494812,628.267944 212.915298,612.403748 
	C214.113510,606.846375 218.885956,608.455627 222.067078,607.134705 
	C225.451553,605.729431 225.970291,609.114075 226.674637,611.323608 
	C228.618896,617.422852 230.397369,623.574890 232.463226,630.443604 
	C235.490875,623.958679 238.100128,617.957764 241.128510,612.176392 
	C241.875656,610.750000 243.850830,609.487488 245.491165,609.084473 
	C258.109100,605.984619 257.911621,606.219666 259.112976,618.762390 
	C260.241455,630.543640 262.385315,642.225220 263.915710,653.972351 
	C264.276794,656.744019 263.969208,659.602844 263.969208,662.569092 
	C260.384277,663.692383 256.956543,665.101746 253.392517,665.702332 
	C252.133682,665.914429 249.493011,664.354431 249.278793,663.253967 
	C248.194244,657.682434 247.702454,651.995605 246.999298,646.349670 
	C246.611282,643.234131 246.216232,640.119385 244.641678,636.784302 
	C241.084564,643.303223 237.638428,649.886841 233.899734,656.299927 
	C232.838516,658.120178 230.924591,659.443237 229.401733,660.994385 
	C228.262833,659.070984 226.814850,657.262451 226.048050,655.200684 
	C224.347809,650.629150 222.989410,645.930603 221.197922,640.372681 
	C218.738556,649.440125 216.498703,657.698303 213.830078,665.976685 
z"/>
<path fill="#FFFFFF" opacity="1.000000" stroke="none" 
	d="
M775.131958,635.588257 
	C774.333557,640.111755 773.543335,644.237671 773.034729,648.398071 
	C772.499512,652.776306 772.233582,657.187500 771.826782,661.849609 
	C767.059998,663.053650 762.318848,664.251160 757.342163,665.508179 
	C755.705444,653.533875 762.190430,642.091187 757.285034,630.965637 
	C749.100159,632.509033 748.381226,638.114868 747.995667,643.953064 
	C747.682129,648.700684 747.410156,653.453918 746.930054,658.185364 
	C746.832031,659.151123 746.091675,660.562683 745.302429,660.863525 
	C740.565247,662.668701 735.727295,664.209473 730.040039,666.138367 
	C731.409058,650.751038 732.659729,636.693298 733.911377,622.624878 
	C739.206543,621.369507 744.320740,620.157104 749.741760,618.871948 
	C749.917725,620.687256 750.071960,622.278564 750.230469,623.913879 
	C765.365540,618.498779 768.546631,618.632629 772.363647,624.636108 
	C778.458801,622.270813 784.179321,618.456116 791.214478,620.696045 
	C797.537781,622.709412 800.135193,625.728516 799.908325,632.260010 
	C799.693542,638.441284 798.594971,644.586731 798.122925,650.766113 
	C797.858032,654.233948 798.075195,657.738708 798.075195,661.695129 
	C792.949707,662.996582 787.887817,664.281860 782.060486,665.761536 
	C782.060486,663.521790 781.905273,662.087402 782.086548,660.696899 
	C783.009827,653.615295 784.326477,646.566895 784.833740,639.458984 
	C785.011292,636.970093 783.272400,634.344543 782.408691,631.781433 
	C780.027161,632.922852 777.645569,634.064331 775.131958,635.588257 
z"/>
<path fill="#FFFFFF" opacity="1.000000" stroke="none" 
	d="
M645.824097,612.672424 
	C655.843811,605.831482 666.206787,604.883179 676.913757,609.622192 
	C678.349731,610.257751 679.664185,612.610107 679.862671,614.304749 
	C680.303284,618.067627 680.000000,621.917603 680.000000,626.379883 
	C678.093506,625.699463 676.367859,625.516296 675.228333,624.602234 
	C670.166870,620.542358 664.482239,619.029907 659.054382,622.694824 
	C652.812622,626.909241 651.456909,633.888977 652.148987,640.981995 
	C652.433044,643.893555 653.455811,647.286621 655.358215,649.327637 
	C657.184509,651.287048 660.533508,652.431641 663.312378,652.644897 
	C664.712219,652.752441 666.331482,650.001709 667.851562,648.543457 
	C667.543640,648.103333 667.235718,647.663208 666.927856,647.223145 
	C664.673767,647.081665 662.419739,646.940247 659.947937,646.785156 
	C660.670044,643.099060 661.159546,639.600098 662.118225,636.234741 
	C662.465698,635.014893 663.905151,633.240662 664.896545,633.207214 
	C672.422546,632.953064 679.961060,633.068237 687.948792,633.068237 
	C687.038513,636.961670 686.655701,639.953064 685.585754,642.674194 
	C684.930420,644.340698 683.095398,645.506042 682.025085,647.058411 
	C681.172485,648.294861 680.031738,649.822144 680.125061,651.142090 
	C680.740601,659.842285 674.785889,662.775452 668.133850,664.218079 
	C658.840149,666.233582 649.921692,665.570862 642.110596,658.747864 
	C633.392639,651.132812 631.361755,635.704163 637.019287,624.637207 
	C639.189575,620.391846 642.686646,616.824585 645.824097,612.672424 
z"/>
<path fill="#FFFFFF" opacity="1.000000" stroke="none" 
	d="
M348.811279,617.459778 
	C349.049164,607.286194 349.046112,607.273071 358.858276,604.989441 
	C361.025726,604.485046 363.223328,604.110107 366.100769,603.537537 
	C365.673370,610.589294 365.407623,616.950134 364.866913,623.287476 
	C364.410065,628.642212 363.588043,633.964722 363.011841,639.310608 
	C362.294952,645.961670 361.704742,652.626709 360.947723,659.272888 
	C360.849762,660.132996 360.245819,661.454224 359.599823,661.650085 
	C355.017242,663.039429 350.362549,664.191040 345.205231,665.557739 
	C345.051727,663.710449 344.954315,662.538025 344.834290,661.093323 
	C339.253296,665.574280 333.027405,666.707825 327.186310,663.856018 
	C320.488831,660.586121 318.278137,653.982483 317.975647,646.727417 
	C317.719971,640.595154 318.253479,634.774414 321.954956,629.506042 
	C327.748688,621.259705 336.490631,618.406494 345.921173,621.951233 
	C346.358337,622.115540 346.911133,621.972229 347.483002,621.972229 
	C347.874512,620.595825 348.260559,619.238586 348.811279,617.459778 
M334.000000,643.614258 
	C334.000031,644.777039 333.764099,646.001099 334.046661,647.090576 
	C334.747711,649.793884 333.659729,653.775757 338.299164,653.975769 
	C342.562012,654.159668 345.411560,652.283997 345.977753,647.838257 
	C346.428436,644.299744 346.682129,640.735657 346.995209,637.180359 
	C347.246552,634.326172 346.198914,631.963684 343.148224,632.123657 
	C340.804810,632.246460 337.675201,632.952148 336.430786,634.575623 
	C334.821198,636.675537 334.739563,639.946533 334.000000,643.614258 
z"/>
<path fill="#FFFFFF" opacity="1.000000" stroke="none" 
	d="
M530.882324,608.000000 
	C540.736084,607.524536 550.111938,607.049072 560.874878,606.503296 
	C558.978394,611.650574 557.474121,615.733459 555.902222,620.000000 
	C551.768127,620.000000 547.790710,619.995789 543.813293,620.000977 
	C536.976868,620.010010 536.977112,620.012451 536.999756,626.823547 
	C537.002502,627.654541 537.000122,628.485474 537.000122,629.947571 
	C541.457092,629.947571 545.922180,630.348328 550.272522,629.813965 
	C553.447937,629.423950 553.374023,630.001221 552.260620,632.450745 
	C551.207703,634.767212 550.961609,637.538208 549.587585,639.592224 
	C548.546021,641.149353 546.400208,642.178467 544.535950,642.902649 
	C543.235291,643.407837 541.578613,643.039368 540.083130,642.992188 
	C536.570374,642.881409 534.699219,643.990723 534.891968,648.070618 
	C535.067322,651.781616 534.428894,655.549072 533.928040,659.261780 
	C533.798706,660.220764 533.036621,661.559021 532.227722,661.884399 
	C527.809875,663.661987 523.286804,665.177979 517.709290,667.174316 
	C518.233459,658.868042 518.675598,651.861755 519.114746,644.902466 
	C512.764343,642.792358 512.729309,642.667603 516.618225,636.834351 
	C519.731384,632.164856 522.044312,627.283020 520.634644,621.091858 
	C518.592163,621.091858 516.493958,621.091858 513.020386,621.091858 
	C515.807922,616.237976 518.121399,612.209534 520.538879,608.000000 
	C523.762268,608.000000 527.083252,608.000000 530.882324,608.000000 
z"/>
<path fill="#FFFFFF" opacity="1.000000" stroke="none" 
	d="
M448.998474,630.817932 
	C448.999878,629.190979 449.087433,628.018005 448.983124,626.862244 
	C448.704102,623.770691 449.339661,622.090271 453.144135,621.803711 
	C457.237457,621.495361 461.235260,619.918579 465.959778,618.721619 
	C465.836090,620.677063 465.735382,622.269348 465.648834,623.637512 
	C468.903748,622.718567 472.262360,621.840393 475.577972,620.822205 
	C488.984467,616.704956 492.481049,626.832886 491.907837,636.031006 
	C491.585052,641.210327 490.239746,646.339478 490.086212,651.512939 
	C489.761444,662.455688 485.915466,665.850830 474.027191,664.586548 
	C474.360992,659.406860 474.693726,654.207520 475.031860,649.008484 
	C475.351318,644.096558 475.879852,639.183594 475.842804,634.274597 
	C475.834503,633.176086 473.891998,631.207764 472.771729,631.157349 
	C468.283844,630.955750 464.346558,635.279785 463.967377,639.839233 
	C463.427216,646.334534 462.690918,652.814514 461.950073,659.290894 
	C461.879761,659.905701 461.300140,660.779419 460.757233,660.973145 
	C456.115540,662.629211 451.427765,664.155945 445.733063,666.063232 
	C446.317078,658.000549 446.723511,651.162415 447.338318,644.343018 
	C447.732208,639.974243 448.433594,635.633179 448.998474,630.817932 
z"/>
<path fill="#FFFFFF" opacity="1.000000" stroke="none" 
	d="
M313.875763,648.332336 
	C308.135193,668.213745 281.654114,669.066589 272.497284,658.194519 
	C263.439758,647.440369 268.368744,627.497742 281.696655,622.933777 
	C283.486816,622.320618 284.944000,620.173340 286.663116,620.030151 
	C290.391571,619.719666 294.333588,619.657959 297.933197,620.537781 
	C310.073914,623.505615 315.138245,631.352539 314.029022,641.913940 
	C313.821289,643.892212 313.990021,645.909973 313.875763,648.332336 
M291.461365,653.999939 
	C298.844604,652.378174 302.109253,640.345337 296.803253,634.310730 
	C293.305725,630.332886 287.905182,630.379150 285.692902,635.021301 
	C283.552856,639.511780 281.229584,644.618164 285.007019,649.459534 
	C286.452576,651.312317 288.742798,652.505981 291.461365,653.999939 
z"/>
<path fill="#FFFFFF" opacity="1.000000" stroke="none" 
	d="
M696.979736,659.089600 
	C693.899719,647.017700 690.839844,635.368469 687.780090,623.719604 
	C692.853821,622.426147 697.645203,621.204773 702.687683,619.919312 
	C703.970337,626.962097 705.234741,633.904114 706.705139,641.977661 
	C708.110901,639.938416 709.311768,638.704895 709.910950,637.227295 
	C711.413025,633.523315 713.204712,629.802124 713.850098,625.916748 
	C714.816528,620.098328 717.475830,619.481018 722.303894,621.603027 
	C724.612122,622.617554 727.286194,622.799622 730.647766,623.548889 
	C728.772644,627.960693 727.015320,632.179321 725.192261,636.369385 
	C719.056519,650.471802 712.966553,664.595459 706.615845,678.600708 
	C706.108887,679.718506 703.769775,680.415710 702.225830,680.526855 
	C700.929443,680.620117 699.592834,679.403503 698.201721,679.059875 
	C692.151428,677.565430 692.191345,677.625488 694.715210,671.706665 
	C696.368835,667.828674 699.749695,664.230835 696.979736,659.089600 
z"/>
<path fill="#FFFFFF" opacity="1.000000" stroke="none" 
	d="
M408.000000,634.980957 
	C407.493835,642.292053 400.030884,648.688904 392.072540,648.985535 
	C389.582031,649.078369 387.085114,649.000000 384.546417,649.000000 
	C388.052338,655.856384 392.590912,655.336548 405.378571,650.159424 
	C405.558533,650.389282 405.883759,650.612915 405.895233,650.851624 
	C406.429413,661.953674 405.948669,663.255188 395.074341,664.803467 
	C381.695618,666.708252 371.630310,662.808655 368.351501,649.134338 
	C365.581635,637.582581 372.032379,623.702454 385.827911,620.905396 
	C397.813904,618.475159 407.170410,623.949768 408.000000,634.980957 
M395.483582,635.001160 
	C395.338989,634.182678 395.490784,633.014709 395.002991,632.600830 
	C391.066467,629.261536 386.273193,632.002197 383.966461,639.617371 
	C387.977264,638.138062 391.459686,636.853638 395.483582,635.001160 
z"/>
<path fill="#FFFFFF" opacity="1.000000" stroke="none" 
	d="
M601.687622,650.255249 
	C601.959351,653.043701 602.923889,654.039795 605.511292,653.211426 
	C607.338074,652.626465 609.283081,652.410400 611.727783,651.918579 
	C612.518066,654.925232 613.312927,657.949158 614.397888,662.076721 
	C608.932068,663.076233 603.703857,664.305847 598.404236,664.933655 
	C591.451965,665.757141 586.943298,662.875122 586.227783,654.635132 
	C585.656982,648.060425 586.997437,641.319763 587.522217,634.208923 
	C585.401062,634.208923 582.845703,634.208923 578.844543,634.208923 
	C581.403381,630.243347 582.676453,626.002930 585.413635,624.581055 
	C589.149353,622.640503 589.169922,619.903320 588.856445,617.199585 
	C588.391907,613.193115 590.552124,611.903992 593.586243,611.192444 
	C597.186829,610.348083 600.854858,609.791138 605.190430,608.979065 
	C604.791748,613.959595 604.407776,618.757080 603.995605,623.906006 
	C607.728271,623.906006 611.175598,623.906006 614.627869,623.906006 
	C614.329224,631.221985 611.349731,633.937561 603.065857,634.059875 
	C602.525513,639.283569 601.974487,644.609985 601.687622,650.255249 
z"/>
<path fill="#FFFFFF" opacity="1.000000" stroke="none" 
	d="
M444.027100,630.912720 
	C443.610901,631.650452 443.179199,632.286743 442.835815,632.242188 
	C434.303986,631.135925 429.860931,634.436401 429.040009,642.898071 
	C428.484344,648.625549 428.294189,654.388550 427.906128,660.695496 
	C423.015228,662.313782 417.933136,663.995239 411.690979,666.060547 
	C412.257660,657.071228 412.653442,649.254761 413.276825,641.456360 
	C413.678528,636.431213 414.236359,631.400879 415.121735,626.443909 
	C415.351318,625.158752 416.879944,623.501587 418.146942,623.115845 
	C422.432831,621.810913 426.869141,621.000061 431.833618,619.866638 
	C431.539032,621.236206 431.308624,622.307373 430.905182,624.183044 
	C435.887482,622.502930 440.559174,620.927551 446.728149,618.847290 
	C445.597931,623.767456 444.825317,627.130798 444.027100,630.912720 
z"/>
<path fill="#FFFFFF" opacity="1.000000" stroke="none" 
	d="
M561.011230,625.467529 
	C562.641113,624.200989 564.182190,623.095215 565.897583,622.624329 
	C569.727783,621.572998 573.644958,620.838501 577.930481,619.885071 
	C576.591431,632.888245 575.313416,645.476868 573.959839,658.057373 
	C573.864624,658.942444 573.412903,660.295654 572.784607,660.535950 
	C568.098877,662.327820 563.326782,663.893860 557.838745,665.786987 
	C558.956970,651.690552 559.979187,638.803467 561.011230,625.467529 
z"/>
<path fill="#FFFFFF" opacity="1.000000" stroke="none" 
	d="
M571.204956,602.018738 
	C573.967041,601.649597 576.291138,601.296692 578.458191,600.967651 
	C578.758667,601.506836 578.902344,601.648010 578.911072,601.797058 
	C579.701782,615.298645 577.700928,617.171570 562.144409,616.935730 
	C562.439575,612.975220 562.537598,608.998047 563.179077,605.110596 
	C563.321594,604.246826 565.317505,603.539612 566.572998,603.049683 
	C567.900757,602.531433 569.363281,602.358643 571.204956,602.018738 
z"/>
<path fill="#000000" opacity="1.000000" stroke="none" 
	d="
M468.402649,484.000610 
	C465.858124,485.851288 463.762146,487.701447 461.666168,489.551605 
	C461.979553,489.931763 462.292938,490.311890 462.606323,490.692047 
	C455.064880,491.344971 455.000397,491.414215 455.000031,498.884888 
	C454.999756,505.032135 455.000000,511.179382 455.000000,517.663086 
	C447.163208,517.663086 439.430054,517.663086 431.347290,517.663086 
	C431.347290,496.741211 431.347290,475.577881 431.347290,454.206360 
	C439.108459,454.206360 446.837097,454.206360 455.000061,454.206360 
	C455.000061,461.456238 455.088501,468.562744 454.964233,475.665466 
	C454.898254,479.435974 456.458801,481.119537 460.253967,481.028168 
	C465.075897,480.912048 469.905029,480.927277 474.725128,481.076904 
	C475.491943,481.100708 476.227661,482.126190 476.977722,482.688599 
	C476.265320,483.125061 475.580688,483.871368 474.835175,483.938110 
	C472.854553,484.115356 470.847687,483.999420 468.402649,484.000610 
z"/>
<path fill="#000000" opacity="1.000000" stroke="none" 
	d="
M571.000000,479.000000 
	C571.000000,492.134705 571.000000,504.769409 571.000000,517.701660 
	C563.078308,517.701660 555.343201,517.701660 547.000000,517.701660 
	C547.000000,511.405731 547.000549,504.982056 546.999878,498.558380 
	C546.999146,491.185883 546.986938,491.173859 539.248047,490.857635 
	C539.248047,487.772644 539.248047,484.671112 539.248047,481.557800 
	C547.000000,480.223328 547.000000,480.223328 547.000000,471.957703 
	C547.000000,466.155121 547.000000,460.352509 547.000000,454.275940 
	C554.968567,454.275940 562.702576,454.275940 571.000000,454.275940 
	C571.000000,462.313782 571.000000,470.406891 571.000000,479.000000 
z"/>
<path fill="#000000" opacity="1.000000" stroke="none" 
	d="
M520.000000,530.267700 
	C520.000000,536.352295 520.000000,541.967041 520.000000,547.787231 
	C509.575928,547.787231 499.518616,547.787231 489.000000,547.787231 
	C489.000000,542.075378 488.477722,536.409363 489.137329,530.884521 
	C489.896301,524.527222 486.407928,521.174561 482.020111,517.991211 
	C481.041290,517.281128 480.139526,516.464783 478.350555,515.000000 
	C484.553864,515.000000 489.644775,514.785400 494.709839,515.055176 
	C500.822418,515.380737 502.559906,513.847351 502.012390,507.708801 
	C501.924133,506.719452 502.000000,505.715424 502.000000,504.359070 
	C510.598480,504.359070 519.143982,504.359070 527.965027,504.359070 
	C525.607910,511.426575 523.221008,518.503174 520.903442,525.602417 
	C520.461853,526.955017 520.294067,528.397095 520.000000,530.267700 
z"/>
<path fill="#000000" opacity="1.000000" stroke="none" 
	d="
M494.000000,498.070557 
	C494.000000,501.194519 494.000000,503.833435 494.000000,506.734741 
	C486.673431,506.734741 479.601288,506.734741 472.263123,506.734741 
	C472.263123,502.336273 472.263123,497.930389 472.263123,493.259888 
	C479.337769,493.259888 486.409393,493.259888 494.000000,493.259888 
	C494.000000,494.708710 494.000000,496.147125 494.000000,498.070557 
z"/>
<path fill="#000000" opacity="1.000000" stroke="none" 
	d="
M503.001892,473.210297 
	C506.118225,471.926117 509.232849,471.122406 512.784851,470.205872 
	C512.784851,479.382904 512.784851,487.415710 512.784851,495.725159 
	C509.712830,495.725159 506.652863,495.725159 503.000214,495.725159 
	C503.000214,488.451355 503.000214,481.071075 503.001892,473.210297 
z"/>
<path fill="#000000" opacity="1.000000" stroke="none" 
	d="
M526.947815,495.999847 
	C525.167969,496.000000 523.864380,496.000000 522.280884,496.000000 
	C522.280884,487.649139 522.280884,479.489899 522.280884,471.197937 
	C524.835693,471.197937 527.227844,471.197937 529.998779,471.197937 
	C529.998779,478.794830 530.078979,486.202484 529.885742,493.602997 
	C529.864380,494.422791 528.282288,495.201782 526.947815,495.999847 
z"/>
<path fill="#000000" opacity="1.000000" stroke="none" 
	d="
M491.868683,471.002319 
	C492.896759,472.102264 493.842804,473.171844 493.924042,474.303497 
	C494.144989,477.380524 493.999908,480.483765 493.999908,483.785431 
	C490.933624,483.785431 488.217407,483.785431 485.248566,483.785431 
	C485.248566,479.689209 485.248566,475.644989 485.248566,471.000305 
	C487.256500,471.000305 489.324371,471.000305 491.868683,471.002319 
z"/>
<path fill="#000000" opacity="1.000000" stroke="none" 
	d="
M334.000000,643.163818 
	C334.739563,639.946533 334.821198,636.675537 336.430786,634.575623 
	C337.675201,632.952148 340.804810,632.246460 343.148224,632.123657 
	C346.198914,631.963684 347.246552,634.326172 346.995209,637.180359 
	C346.682129,640.735657 346.428436,644.299744 345.977753,647.838257 
	C345.411560,652.283997 342.562012,654.159668 338.299164,653.975769 
	C333.659729,653.775757 334.747711,649.793884 334.046661,647.090576 
	C333.764099,646.001099 334.000031,644.777039 334.000000,643.163818 
z"/>
<path fill="#000000" opacity="1.000000" stroke="none" 
	d="
M291.054749,654.000000 
	C288.742798,652.505981 286.452576,651.312317 285.007019,649.459534 
	C281.229584,644.618164 283.552856,639.511780 285.692902,635.021301 
	C287.905182,630.379150 293.305725,630.332886 296.803253,634.310730 
	C302.109253,640.345337 298.844604,652.378174 291.054749,654.000000 
z"/>
<path fill="#000000" opacity="1.000000" stroke="none" 
	d="
M395.212830,635.285156 
	C391.459686,636.853638 387.977264,638.138062 383.966461,639.617371 
	C386.273193,632.002197 391.066467,629.261536 395.002991,632.600830 
	C395.490784,633.014709 395.338989,634.182678 395.212830,635.285156 
z"/>
</svg>